0
SECTION
2
ENTITIES
0
LWPOLYLINE
8
0
90
79
70
1
10
350.000
20
0.000
10
298.000
20
-66.000
10
310.000
20
-167.000
10
344.000
20
-202.000
10
349.000
20
-244.000
10
437.000
20
-315.000
10
139.000
20
-316.000
10
98.000
20
-274.000
10
94.000
20
-274.000
10
56.000
20
-290.000
10
46.000
20
-314.000
10
61.000
20
-351.000
10
22.000
20
-369.000
10
0.000
20
-424.000
10
18.000
20
-466.000
10
76.000
20
-464.000
10
82.000
20
-453.000
10
101.000
20
-469.000
10
437.000
20
-470.000
10
349.000
20
-542.000
10
345.000
20
-583.000
10
312.000
20
-610.000
10
298.000
20
-745.000
10
323.000
20
-787.000
10
349.000
20
-819.000
10
416.000
20
-766.000
10
428.000
20
-647.000
10
406.000
20
-618.000
10
444.000
20
-622.000
10
508.000
20
-569.000
10
512.000
20
-531.000
10
539.000
20
-558.000
10
621.000
20
-558.000
10
648.000
20
-531.000
10
654.000
20
-571.000
10
717.000
20
-622.000
10
755.000
20
-619.000
10
732.000
20
-648.000
10
745.000
20
-767.000
10
812.000
20
-819.000
10
836.000
20
-789.000
10
863.000
20
-744.000
10
848.000
20
-610.000
10
815.000
20
-583.000
10
811.000
20
-542.000
10
723.000
20
-470.000
10
1058.000
20
-470.000
10
1078.000
20
-452.000
10
1084.000
20
-464.000
10
1143.000
20
-466.000
10
1159.000
20
-431.000
10
1160.000
20
-423.000
10
1138.000
20
-368.000
10
1100.000
20
-351.000
10
1114.000
20
-315.000
10
1105.000
20
-291.000
10
1062.000
20
-274.000
10
1022.000
20
-316.000
10
725.000
20
-316.000
10
812.000
20
-243.000
10
816.000
20
-203.000
10
851.000
20
-165.000
10
863.000
20
-67.000
10
813.000
20
-2.000
10
808.000
20
0.000
10
742.000
20
-52.000
10
732.000
20
-137.000
10
754.000
20
-165.000
10
716.000
20
-162.000
10
653.000
20
-213.000
10
648.000
20
-253.000
10
648.000
20
-301.000
10
513.000
20
-302.000
10
512.000
20
-249.000
10
508.000
20
-214.000
10
444.000
20
-162.000
10
406.000
20
-165.000
10
429.000
20
-136.000
10
418.000
20
-51.000
0
ENDSEC
0
EOF
