0
SECTION
2
ENTITIES
0
LWPOLYLINE
8
0
90
41
70
1
10
715.000
20
-189.000
10
660.000
20
-134.000
10
583.000
20
-134.000
10
429.000
20
-2.000
10
422.000
20
0.000
10
388.000
20
-34.000
10
352.000
20
-60.000
10
315.000
20
-79.000
10
273.000
20
-93.000
10
227.000
20
-101.000
10
180.000
20
-101.000
10
140.000
20
-95.000
10
92.000
20
-81.000
10
55.000
20
-97.000
10
0.000
20
-238.000
10
19.000
20
-281.000
10
38.000
20
-313.000
10
57.000
20
-317.000
10
91.000
20
-299.000
10
116.000
20
-332.000
10
137.000
20
-334.000
10
168.000
20
-311.000
10
197.000
20
-339.000
10
217.000
20
-339.000
10
246.000
20
-310.000
10
278.000
20
-333.000
10
299.000
20
-330.000
10
323.000
20
-297.000
10
357.000
20
-315.000
10
376.000
20
-310.000
10
396.000
20
-273.000
10
436.000
20
-285.000
10
453.000
20
-275.000
10
466.000
20
-237.000
10
507.000
20
-243.000
10
521.000
20
-232.000
10
524.000
20
-217.000
10
525.000
20
-268.000
10
580.000
20
-323.000
10
660.000
20
-323.000
10
715.000
20
-267.000
0
ENDSEC
0
EOF
