0
SECTION
2
ENTITIES
0
LWPOLYLINE
8
0
90
25
70
1
10
94.000
20
0.000
10
100.000
20
-111.000
10
61.000
20
-109.000
10
15.000
20
-128.000
10
0.000
20
-164.000
10
17.000
20
-247.000
10
41.000
20
-301.000
10
47.000
20
-302.000
10
88.000
20
-288.000
10
67.000
20
-306.000
10
67.000
20
-311.000
10
93.000
20
-344.000
10
152.000
20
-344.000
10
177.000
20
-311.000
10
177.000
20
-306.000
10
157.000
20
-288.000
10
197.000
20
-302.000
10
204.000
20
-300.000
10
228.000
20
-245.000
10
244.000
20
-160.000
10
232.000
20
-131.000
10
227.000
20
-127.000
10
184.000
20
-109.000
10
144.000
20
-111.000
10
152.000
20
-1.000
0
ENDSEC
0
EOF
