0
SECTION
2
ENTITIES
0
LWPOLYLINE
8
0
90
30
70
1
10
163.000
20
0.000
10
134.000
20
-29.000
10
146.000
20
-108.000
10
141.000
20
-145.000
10
125.000
20
-129.000
10
88.000
20
-125.000
10
43.000
20
-111.000
10
27.000
20
-119.000
10
0.000
20
-203.000
10
25.000
20
-248.000
10
63.000
20
-261.000
10
60.000
20
-301.000
10
92.000
20
-338.000
10
139.000
20
-340.000
10
177.000
20
-331.000
10
205.000
20
-288.000
10
201.000
20
-258.000
10
254.000
20
-340.000
10
298.000
20
-338.000
10
330.000
20
-302.000
10
328.000
20
-260.000
10
367.000
20
-247.000
10
390.000
20
-203.000
10
365.000
20
-121.000
10
343.000
20
-111.000
10
257.000
20
-139.000
10
253.000
20
-169.000
10
245.000
20
-104.000
10
257.000
20
-30.000
10
227.000
20
0.000
0
ENDSEC
0
EOF
