0
SECTION
2
ENTITIES
0
LWPOLYLINE
8
0
90
36
70
1
10
11.000
20
-93.000
10
22.000
20
-135.000
10
0.000
20
-137.000
10
0.000
20
-364.000
10
19.000
20
-361.000
10
12.000
20
-437.000
10
94.000
20
-544.000
10
141.000
20
-553.000
10
178.000
20
-525.000
10
215.000
20
-364.000
10
203.000
20
-342.000
10
363.000
20
-478.000
10
369.000
20
-477.000
10
527.000
20
-343.000
10
515.000
20
-368.000
10
552.000
20
-524.000
10
590.000
20
-553.000
10
786.000
20
-512.000
10
713.000
20
-393.000
10
711.000
20
-361.000
10
731.000
20
-365.000
10
731.000
20
-137.000
10
708.000
20
-135.000
10
720.000
20
-94.000
10
573.000
20
0.000
10
567.000
20
0.000
10
533.000
20
-22.000
10
515.000
20
-104.000
10
526.000
20
-124.000
10
436.000
20
-42.000
10
294.000
20
-42.000
10
205.000
20
-123.000
10
215.000
20
-104.000
10
198.000
20
-24.000
10
163.000
20
0.000
10
158.000
20
0.000
0
ENDSEC
0
EOF
