0
SECTION
2
ENTITIES
0
LWPOLYLINE
8
0
90
41
70
1
10
0.000
20
-236.000
10
1.000
20
-431.000
10
193.000
20
-431.000
10
217.000
20
-466.000
10
290.000
20
-454.000
10
304.000
20
-420.000
10
311.000
20
-417.000
10
311.000
20
-325.000
10
282.000
20
-252.000
10
283.000
20
-196.000
10
541.000
20
-197.000
10
541.000
20
-251.000
10
512.000
20
-324.000
10
512.000
20
-417.000
10
518.000
20
-419.000
10
533.000
20
-454.000
10
606.000
20
-466.000
10
629.000
20
-431.000
10
823.000
20
-430.000
10
822.000
20
-235.000
10
628.000
20
-235.000
10
627.000
20
-291.000
10
598.000
20
-304.000
10
602.000
20
-287.000
10
587.000
20
-252.000
10
615.000
20
-225.000
10
615.000
20
-222.000
10
587.000
20
-195.000
10
615.000
20
-167.000
10
615.000
20
-29.000
10
586.000
20
0.000
10
237.000
20
0.000
10
207.000
20
-30.000
10
207.000
20
-166.000
10
235.000
20
-194.000
10
207.000
20
-222.000
10
236.000
20
-253.000
10
220.000
20
-289.000
10
224.000
20
-305.000
10
196.000
20
-292.000
10
195.000
20
-235.000
0
ENDSEC
0
EOF
