0
SECTION
2
ENTITIES
0
LWPOLYLINE
8
0
90
25
70
1
10
0.000
20
-161.000
10
30.000
20
-214.000
10
88.000
20
-278.000
10
95.000
20
-280.000
10
335.000
20
-144.000
10
439.000
20
-167.000
10
481.000
20
-169.000
10
493.000
20
-100.000
10
498.000
20
-97.000
10
526.000
20
-93.000
10
549.000
20
-98.000
10
561.000
20
-168.000
10
604.000
20
-167.000
10
709.000
20
-143.000
10
746.000
20
-122.000
10
754.000
20
-90.000
10
734.000
20
-54.000
10
613.000
20
-74.000
10
524.000
20
-28.000
10
519.000
20
-28.000
10
430.000
20
-74.000
10
314.000
20
-55.000
10
309.000
20
-51.000
10
279.000
20
0.000
10
2.000
20
-156.000
0
ENDSEC
0
EOF
