0
SECTION
2
ENTITIES
0
LWPOLYLINE
8
0
90
38
70
1
10
330.000
20
-84.000
10
319.000
20
-57.000
10
218.000
20
-22.000
10
184.000
20
-20.000
10
165.000
20
0.000
10
147.000
20
-20.000
10
113.000
20
-21.000
10
11.000
20
-54.000
10
0.000
20
-84.000
10
10.000
20
-105.000
10
35.000
20
-114.000
10
52.000
20
-130.000
10
55.000
20
-128.000
10
57.000
20
-113.000
10
63.000
20
-124.000
10
66.000
20
-124.000
10
64.000
20
-109.000
10
77.000
20
-121.000
10
112.000
20
-112.000
10
120.000
20
-92.000
10
124.000
20
-97.000
10
121.000
20
-161.000
10
142.000
20
-177.000
10
140.000
20
-285.000
10
184.000
20
-286.000
10
186.000
20
-177.000
10
207.000
20
-162.000
10
207.000
20
-96.000
10
210.000
20
-93.000
10
217.000
20
-113.000
10
252.000
20
-123.000
10
265.000
20
-112.000
10
265.000
20
-127.000
10
273.000
20
-116.000
10
274.000
20
-131.000
10
277.000
20
-132.000
10
294.000
20
-117.000
10
318.000
20
-109.000
0
ENDSEC
0
EOF
