0
SECTION
2
ENTITIES
0
LWPOLYLINE
8
0
90
32
70
1
10
165.000
20
-9.000
10
135.000
20
-34.000
10
113.000
20
-31.000
10
91.000
20
0.000
10
85.000
20
-34.000
10
63.000
20
-49.000
10
26.000
20
-39.000
10
43.000
20
-70.000
10
33.000
20
-96.000
10
0.000
20
-108.000
10
31.000
20
-123.000
10
40.000
20
-145.000
10
40.000
20
-150.000
10
22.000
20
-177.000
10
22.000
20
-181.000
10
58.000
20
-172.000
10
88.000
20
-187.000
10
91.000
20
-186.000
10
74.000
20
-152.000
10
64.000
20
-139.000
10
59.000
20
-125.000
10
58.000
20
-102.000
10
63.000
20
-89.000
10
78.000
20
-69.000
10
95.000
20
-59.000
10
108.000
20
-56.000
10
131.000
20
-58.000
10
146.000
20
-65.000
10
161.000
20
-80.000
10
178.000
20
-70.000
10
182.000
20
-65.000
10
163.000
20
-46.000
0
ENDSEC
0
EOF
