0
SECTION
2
ENTITIES
0
LWPOLYLINE
8
0
90
35
70
1
10
146.000
20
0.000
10
113.000
20
-33.000
10
121.000
20
-83.000
10
120.000
20
-103.000
10
107.000
20
-94.000
10
109.000
20
-52.000
10
20.000
20
-66.000
10
1.000
20
-93.000
10
0.000
20
-102.000
10
19.000
20
-185.000
10
56.000
20
-167.000
10
64.000
20
-211.000
10
70.000
20
-217.000
10
77.000
20
-220.000
10
121.000
20
-213.000
10
121.000
20
-291.000
10
113.000
20
-343.000
10
146.000
20
-376.000
10
186.000
20
-376.000
10
220.000
20
-342.000
10
210.000
20
-289.000
10
210.000
20
-213.000
10
254.000
20
-220.000
10
267.000
20
-213.000
10
276.000
20
-168.000
10
313.000
20
-186.000
10
324.000
20
-145.000
10
332.000
20
-95.000
10
312.000
20
-66.000
10
223.000
20
-52.000
10
225.000
20
-94.000
10
212.000
20
-103.000
10
210.000
20
-87.000
10
220.000
20
-33.000
10
187.000
20
0.000
0
ENDSEC
0
EOF
