0
SECTION
2
ENTITIES
0
LWPOLYLINE
8
0
90
28
70
1
10
3.000
20
0.000
10
0.000
20
-30.000
10
24.000
20
-53.000
10
70.000
20
-58.000
10
89.000
20
-43.000
10
95.000
20
-67.000
10
130.000
20
-91.000
10
157.000
20
-86.000
10
150.000
20
-105.000
10
168.000
20
-104.000
10
152.000
20
-120.000
10
152.000
20
-166.000
10
168.000
20
-182.000
10
150.000
20
-181.000
10
157.000
20
-200.000
10
131.000
20
-195.000
10
95.000
20
-219.000
10
89.000
20
-243.000
10
70.000
20
-228.000
10
23.000
20
-234.000
10
0.000
20
-256.000
10
3.000
20
-286.000
10
98.000
20
-274.000
10
171.000
20
-227.000
10
197.000
20
-197.000
10
197.000
20
-89.000
10
171.000
20
-59.000
10
97.000
20
-12.000
0
ENDSEC
0
EOF
