0
SECTION
2
ENTITIES
0
LWPOLYLINE
8
0
90
59
70
1
10
0.000
20
-194.000
10
2.000
20
-203.000
10
26.000
20
-215.000
10
40.000
20
-232.000
10
43.000
20
-230.000
10
46.000
20
-215.000
10
53.000
20
-227.000
10
56.000
20
-227.000
10
56.000
20
-210.000
10
75.000
20
-223.000
10
121.000
20
-214.000
10
135.000
20
-192.000
10
151.000
20
-209.000
10
167.000
20
-190.000
10
202.000
20
-190.000
10
216.000
20
-209.000
10
234.000
20
-192.000
10
247.000
20
-213.000
10
294.000
20
-223.000
10
313.000
20
-210.000
10
315.000
20
-228.000
10
323.000
20
-214.000
10
327.000
20
-232.000
10
343.000
20
-215.000
10
367.000
20
-203.000
10
369.000
20
-194.000
10
356.000
20
-170.000
10
353.000
20
-149.000
10
343.000
20
-161.000
10
341.000
20
-145.000
10
330.000
20
-159.000
10
325.000
20
-142.000
10
314.000
20
-158.000
10
300.000
20
-136.000
10
262.000
20
-127.000
10
252.000
20
-129.000
10
233.000
20
-142.000
10
230.000
20
-140.000
10
233.000
20
-135.000
10
231.000
20
-37.000
10
212.000
20
-25.000
10
187.000
20
0.000
10
182.000
20
0.000
10
153.000
20
-28.000
10
138.000
20
-36.000
10
135.000
20
-49.000
10
135.000
20
-134.000
10
139.000
20
-140.000
10
136.000
20
-142.000
10
115.000
20
-128.000
10
106.000
20
-127.000
10
69.000
20
-136.000
10
55.000
20
-157.000
10
44.000
20
-142.000
10
39.000
20
-160.000
10
28.000
20
-145.000
10
26.000
20
-161.000
10
16.000
20
-149.000
10
12.000
20
-171.000
0
ENDSEC
0
EOF
