0
SECTION
2
ENTITIES
0
LWPOLYLINE
8
0
90
59
70
1
10
0.000
20
-194.000
10
3.000
20
-203.000
10
26.000
20
-214.000
10
41.000
20
-232.000
10
46.000
20
-215.000
10
56.000
20
-227.000
10
57.000
20
-210.000
10
76.000
20
-223.000
10
120.000
20
-214.000
10
135.000
20
-192.000
10
154.000
20
-208.000
10
170.000
20
-189.000
10
200.000
20
-189.000
10
216.000
20
-208.000
10
235.000
20
-192.000
10
249.000
20
-214.000
10
294.000
20
-223.000
10
313.000
20
-210.000
10
313.000
20
-226.000
10
315.000
20
-227.000
10
323.000
20
-215.000
10
329.000
20
-232.000
10
344.000
20
-214.000
10
367.000
20
-203.000
10
370.000
20
-197.000
10
357.000
20
-170.000
10
353.000
20
-149.000
10
343.000
20
-161.000
10
341.000
20
-145.000
10
330.000
20
-159.000
10
326.000
20
-141.000
10
314.000
20
-157.000
10
300.000
20
-135.000
10
261.000
20
-126.000
10
255.000
20
-127.000
10
234.000
20
-141.000
10
230.000
20
-140.000
10
234.000
20
-134.000
10
234.000
20
-48.000
10
231.000
20
-35.000
10
219.000
20
-30.000
10
188.000
20
0.000
10
182.000
20
0.000
10
153.000
20
-28.000
10
139.000
20
-35.000
10
136.000
20
-46.000
10
136.000
20
-134.000
10
140.000
20
-140.000
10
136.000
20
-141.000
10
113.000
20
-126.000
10
70.000
20
-135.000
10
55.000
20
-157.000
10
45.000
20
-142.000
10
42.000
20
-143.000
10
39.000
20
-159.000
10
28.000
20
-145.000
10
27.000
20
-161.000
10
16.000
20
-149.000
10
13.000
20
-170.000
0
ENDSEC
0
EOF
