0
SECTION
2
ENTITIES
0
LWPOLYLINE
8
0
90
26
70
1
10
0.000
20
-1.000
10
4.000
20
-127.000
10
50.000
20
-292.000
10
85.000
20
-312.000
10
115.000
20
-343.000
10
156.000
20
-345.000
10
186.000
20
-317.000
10
229.000
20
-322.000
10
259.000
20
-300.000
10
266.000
20
-260.000
10
341.000
20
-309.000
10
345.000
20
-309.000
10
419.000
20
-261.000
10
426.000
20
-299.000
10
457.000
20
-322.000
10
499.000
20
-316.000
10
529.000
20
-344.000
10
571.000
20
-342.000
10
600.000
20
-311.000
10
636.000
20
-289.000
10
680.000
20
-127.000
10
682.000
20
0.000
10
409.000
20
-162.000
10
343.000
20
-184.000
10
276.000
20
-162.000
10
3.000
20
0.000
0
ENDSEC
0
EOF
