0
SECTION
2
ENTITIES
0
LWPOLYLINE
8
0
90
34
70
1
10
59.000
20
0.000
10
0.000
20
-60.000
10
0.000
20
-191.000
10
59.000
20
-250.000
10
180.000
20
-250.000
10
209.000
20
-222.000
10
237.000
20
-250.000
10
307.000
20
-251.000
10
243.000
20
-311.000
10
243.000
20
-855.000
10
345.000
20
-949.000
10
484.000
20
-949.000
10
586.000
20
-855.000
10
586.000
20
-311.000
10
522.000
20
-251.000
10
592.000
20
-250.000
10
620.000
20
-222.000
10
649.000
20
-250.000
10
770.000
20
-250.000
10
829.000
20
-191.000
10
829.000
20
-59.000
10
770.000
20
0.000
10
649.000
20
0.000
10
621.000
20
-28.000
10
593.000
20
0.000
10
511.000
20
0.000
10
483.000
20
-28.000
10
455.000
20
0.000
10
374.000
20
0.000
10
346.000
20
-28.000
10
318.000
20
0.000
10
236.000
20
0.000
10
208.000
20
-28.000
10
180.000
20
0.000
0
ENDSEC
0
EOF
