0
SECTION
2
ENTITIES
0
LWPOLYLINE
8
0
90
27
70
1
10
73.000
20
0.000
10
40.000
20
-35.000
10
14.000
20
-56.000
10
39.000
20
-64.000
10
17.000
20
-66.000
10
0.000
20
-91.000
10
5.000
20
-142.000
10
24.000
20
-160.000
10
38.000
20
-160.000
10
51.000
20
-156.000
10
50.000
20
-160.000
10
19.000
20
-167.000
10
51.000
20
-173.000
10
71.000
20
-204.000
10
75.000
20
-206.000
10
97.000
20
-173.000
10
129.000
20
-167.000
10
98.000
20
-160.000
10
98.000
20
-155.000
10
109.000
20
-160.000
10
124.000
20
-160.000
10
147.000
20
-139.000
10
150.000
20
-88.000
10
130.000
20
-66.000
10
109.000
20
-64.000
10
134.000
20
-56.000
10
110.000
20
-37.000
0
ENDSEC
0
EOF
