0
SECTION
2
ENTITIES
0
LWPOLYLINE
8
0
90
40
70
1
10
612.000
20
-105.000
10
580.000
20
-103.000
10
562.000
20
-85.000
10
493.000
20
-85.000
10
475.000
20
-103.000
10
437.000
20
-104.000
10
434.000
20
0.000
10
321.000
20
0.000
10
319.000
20
-104.000
10
282.000
20
-104.000
10
264.000
20
-86.000
10
195.000
20
-86.000
10
177.000
20
-104.000
10
140.000
20
-104.000
10
120.000
20
-85.000
10
40.000
20
-85.000
10
22.000
20
-103.000
10
0.000
20
-133.000
10
0.000
20
-239.000
10
21.000
20
-268.000
10
40.000
20
-287.000
10
119.000
20
-288.000
10
139.000
20
-269.000
10
178.000
20
-269.000
10
196.000
20
-287.000
10
263.000
20
-287.000
10
281.000
20
-269.000
10
319.000
20
-269.000
10
321.000
20
-372.000
10
434.000
20
-372.000
10
436.000
20
-269.000
10
475.000
20
-269.000
10
493.000
20
-287.000
10
562.000
20
-287.000
10
580.000
20
-269.000
10
612.000
20
-268.000
10
602.000
20
-238.000
10
619.000
20
-220.000
10
619.000
20
-152.000
10
601.000
20
-134.000
0
ENDSEC
0
EOF
