0
SECTION
2
ENTITIES
0
LWPOLYLINE
8
0
90
39
70
1
10
617.000
20
-188.000
10
595.000
20
-166.000
10
431.000
20
-166.000
10
434.000
20
-161.000
10
434.000
20
-134.000
10
452.000
20
-116.000
10
452.000
20
-37.000
10
416.000
20
0.000
10
380.000
20
-37.000
10
380.000
20
-93.000
10
395.000
20
-108.000
10
376.000
20
-108.000
10
375.000
20
-128.000
10
360.000
20
-113.000
10
73.000
20
-113.000
10
36.000
20
-149.000
10
52.000
20
-166.000
10
19.000
20
-167.000
10
0.000
20
-186.000
10
0.000
20
-316.000
10
19.000
20
-333.000
10
50.000
20
-333.000
10
36.000
20
-351.000
10
73.000
20
-387.000
10
359.000
20
-387.000
10
375.000
20
-371.000
10
374.000
20
-391.000
10
395.000
20
-392.000
10
380.000
20
-407.000
10
380.000
20
-463.000
10
415.000
20
-499.000
10
418.000
20
-499.000
10
452.000
20
-463.000
10
452.000
20
-384.000
10
433.000
20
-365.000
10
434.000
20
-339.000
10
430.000
20
-335.000
10
595.000
20
-334.000
10
617.000
20
-312.000
0
ENDSEC
0
EOF
