0
SECTION
2
ENTITIES
0
LWPOLYLINE
8
0
90
59
70
1
10
0.000
20
-321.000
10
79.000
20
-350.000
10
108.000
20
-342.000
10
98.000
20
-323.000
10
101.000
20
-322.000
10
130.000
20
-333.000
10
148.000
20
-364.000
10
247.000
20
-339.000
10
345.000
20
-342.000
10
433.000
20
-367.000
10
449.000
20
-338.000
10
474.000
20
-330.000
10
477.000
20
-332.000
10
467.000
20
-349.000
10
491.000
20
-359.000
10
576.000
20
-338.000
10
552.000
20
-202.000
10
549.000
20
-197.000
10
466.000
20
-173.000
10
398.000
20
-193.000
10
392.000
20
-200.000
10
386.000
20
-189.000
10
413.000
20
-185.000
10
431.000
20
-163.000
10
429.000
20
-135.000
10
455.000
20
-144.000
10
498.000
20
-124.000
10
509.000
20
-95.000
10
496.000
20
-81.000
10
469.000
20
-68.000
10
419.000
20
-84.000
10
405.000
20
-110.000
10
378.000
20
-113.000
10
358.000
20
-138.000
10
361.000
20
-167.000
10
339.000
20
-178.000
10
336.000
20
-177.000
10
337.000
20
-90.000
10
361.000
20
-9.000
10
361.000
20
0.000
10
227.000
20
0.000
10
250.000
20
-90.000
10
248.000
20
-177.000
10
223.000
20
-166.000
10
225.000
20
-138.000
10
206.000
20
-115.000
10
176.000
20
-111.000
10
162.000
20
-87.000
10
111.000
20
-73.000
10
86.000
20
-86.000
10
72.000
20
-102.000
10
83.000
20
-129.000
10
128.000
20
-147.000
10
154.000
20
-137.000
10
154.000
20
-164.000
10
168.000
20
-181.000
10
128.000
20
-166.000
10
39.000
20
-184.000
10
35.000
20
-190.000
0
ENDSEC
0
EOF
