0
SECTION
2
ENTITIES
0
LWPOLYLINE
8
0
90
25
70
1
10
75.000
20
0.000
10
37.000
20
-38.000
10
14.000
20
-56.000
10
15.000
20
-59.000
10
37.000
20
-65.000
10
18.000
20
-66.000
10
0.000
20
-88.000
10
4.000
20
-142.000
10
24.000
20
-161.000
10
51.000
20
-157.000
10
49.000
20
-161.000
10
18.000
20
-167.000
10
51.000
20
-174.000
10
73.000
20
-207.000
10
97.000
20
-174.000
10
129.000
20
-167.000
10
98.000
20
-161.000
10
96.000
20
-157.000
10
123.000
20
-161.000
10
147.000
20
-139.000
10
150.000
20
-89.000
10
129.000
20
-66.000
10
109.000
20
-65.000
10
134.000
20
-57.000
10
110.000
20
-38.000
0
ENDSEC
0
EOF
