0
SECTION
2
ENTITIES
0
LWPOLYLINE
8
0
90
36
70
1
10
0.000
20
-79.000
10
8.000
20
-103.000
10
35.000
20
-115.000
10
51.000
20
-130.000
10
54.000
20
-129.000
10
56.000
20
-112.000
10
63.000
20
-125.000
10
64.000
20
-110.000
10
77.000
20
-122.000
10
112.000
20
-112.000
10
118.000
20
-93.000
10
122.000
20
-95.000
10
121.000
20
-162.000
10
141.000
20
-177.000
10
141.000
20
-286.000
10
185.000
20
-286.000
10
186.000
20
-177.000
10
207.000
20
-162.000
10
205.000
20
-99.000
10
211.000
20
-94.000
10
217.000
20
-114.000
10
249.000
20
-124.000
10
265.000
20
-112.000
10
264.000
20
-128.000
10
272.000
20
-115.000
10
276.000
20
-133.000
10
293.000
20
-118.000
10
319.000
20
-109.000
10
329.000
20
-89.000
10
319.000
20
-58.000
10
222.000
20
-24.000
10
183.000
20
-20.000
10
166.000
20
0.000
10
147.000
20
-20.000
10
111.000
20
-22.000
10
11.000
20
-54.000
0
ENDSEC
0
EOF
