0
SECTION
2
ENTITIES
0
LWPOLYLINE
8
0
90
35
70
1
10
296.000
20
0.000
10
295.000
20
-326.000
10
289.000
20
-310.000
10
152.000
20
-211.000
10
108.000
20
-217.000
10
66.000
20
-206.000
10
15.000
20
-234.000
10
1.000
20
-277.000
10
62.000
20
-287.000
10
37.000
20
-306.000
10
32.000
20
-314.000
10
0.000
20
-572.000
10
27.000
20
-605.000
10
291.000
20
-638.000
10
292.000
20
-640.000
10
266.000
20
-666.000
10
266.000
20
-882.000
10
295.000
20
-911.000
10
432.000
20
-911.000
10
461.000
20
-882.000
10
461.000
20
-666.000
10
435.000
20
-639.000
10
699.000
20
-605.000
10
727.000
20
-572.000
10
694.000
20
-310.000
10
665.000
20
-287.000
10
723.000
20
-279.000
10
725.000
20
-273.000
10
714.000
20
-236.000
10
660.000
20
-206.000
10
618.000
20
-217.000
10
574.000
20
-211.000
10
435.000
20
-313.000
10
432.000
20
-332.000
10
431.000
20
-1.000
0
ENDSEC
0
EOF
