0
SECTION
2
ENTITIES
0
LWPOLYLINE
8
0
90
31
70
1
10
164.000
20
-9.000
10
134.000
20
-33.000
10
112.000
20
-30.000
10
90.000
20
0.000
10
84.000
20
-34.000
10
66.000
20
-46.000
10
59.000
20
-48.000
10
26.000
20
-38.000
10
43.000
20
-71.000
10
32.000
20
-95.000
10
0.000
20
-107.000
10
31.000
20
-122.000
10
40.000
20
-148.000
10
22.000
20
-175.000
10
22.000
20
-179.000
10
57.000
20
-171.000
10
87.000
20
-186.000
10
90.000
20
-185.000
10
74.000
20
-152.000
10
62.000
20
-136.000
10
58.000
20
-123.000
10
58.000
20
-100.000
10
64.000
20
-84.000
10
82.000
20
-65.000
10
94.000
20
-58.000
10
108.000
20
-55.000
10
131.000
20
-57.000
10
147.000
20
-65.000
10
161.000
20
-79.000
10
181.000
20
-66.000
10
162.000
20
-44.000
0
ENDSEC
0
EOF
