0
SECTION
2
ENTITIES
0
LWPOLYLINE
8
0
90
25
70
1
10
164.000
20
0.000
10
19.000
20
-47.000
10
0.000
20
-77.000
10
2.000
20
-228.000
10
22.000
20
-260.000
10
158.000
20
-303.000
10
173.000
20
-305.000
10
188.000
20
-303.000
10
200.000
20
-281.000
10
177.000
20
-277.000
10
162.000
20
-251.000
10
74.000
20
-223.000
10
46.000
20
-232.000
10
53.000
20
-216.000
10
35.000
20
-216.000
10
51.000
20
-200.000
10
50.000
20
-105.000
10
34.000
20
-89.000
10
52.000
20
-89.000
10
45.000
20
-73.000
10
73.000
20
-82.000
10
161.000
20
-54.000
10
176.000
20
-28.000
10
199.000
20
-24.000
10
187.000
20
-2.000
0
ENDSEC
0
EOF
