0
SECTION
2
ENTITIES
0
LWPOLYLINE
8
0
90
30
70
1
10
164.000
20
-10.000
10
137.000
20
-34.000
10
113.000
20
-31.000
10
91.000
20
0.000
10
83.000
20
-37.000
10
63.000
20
-49.000
10
26.000
20
-39.000
10
43.000
20
-73.000
10
33.000
20
-96.000
10
0.000
20
-108.000
10
31.000
20
-123.000
10
40.000
20
-146.000
10
22.000
20
-180.000
10
58.000
20
-172.000
10
87.000
20
-187.000
10
90.000
20
-186.000
10
75.000
20
-154.000
10
62.000
20
-136.000
10
57.000
20
-119.000
10
58.000
20
-102.000
10
64.000
20
-86.000
10
79.000
20
-68.000
10
94.000
20
-59.000
10
108.000
20
-56.000
10
131.000
20
-58.000
10
147.000
20
-66.000
10
161.000
20
-80.000
10
179.000
20
-69.000
10
181.000
20
-64.000
10
163.000
20
-46.000
0
ENDSEC
0
EOF
