0
SECTION
2
ENTITIES
0
LWPOLYLINE
8
0
90
40
70
1
10
7.000
20
-104.000
10
18.000
20
-134.000
10
0.000
20
-152.000
10
0.000
20
-220.000
10
18.000
20
-238.000
10
7.000
20
-267.000
10
40.000
20
-269.000
10
58.000
20
-287.000
10
126.000
20
-287.000
10
144.000
20
-269.000
10
183.000
20
-268.000
10
185.000
20
-371.000
10
298.000
20
-371.000
10
300.000
20
-268.000
10
337.000
20
-268.000
10
355.000
20
-286.000
10
424.000
20
-286.000
10
442.000
20
-268.000
10
479.000
20
-268.000
10
499.000
20
-287.000
10
579.000
20
-287.000
10
597.000
20
-269.000
10
619.000
20
-239.000
10
619.000
20
-133.000
10
598.000
20
-104.000
10
579.000
20
-85.000
10
499.000
20
-84.000
10
480.000
20
-103.000
10
442.000
20
-103.000
10
424.000
20
-85.000
10
356.000
20
-85.000
10
338.000
20
-103.000
10
300.000
20
-103.000
10
298.000
20
0.000
10
185.000
20
0.000
10
183.000
20
-103.000
10
144.000
20
-103.000
10
126.000
20
-85.000
10
57.000
20
-85.000
10
39.000
20
-103.000
0
ENDSEC
0
EOF
